<?xml version="1.0" encoding="utf-8"?>
<!-- Generator: Adobe Illustrator 25.0.0, SVG Export Plug-In . SVG Version: 6.00 Build 0)  -->
<svg version="1.1" id="Layer_1" xmlns="http://www.w3.org/2000/svg" xmlns:xlink="http://www.w3.org/1999/xlink" x="0px" y="0px"
	 viewBox="0 0 368.5 48" style="enable-background:new 0 0 368.5 48;" xml:space="preserve">
<style type="text/css">
	.st0{fill:#FFFFFF;}
</style>
<g>
	<path class="st0" d="M4.8,1.5h10.5V47H4.8V1.5z"/>
	<path class="st0" d="M56.8,23.5h9.6V42c-2.5,1.9-5.3,3.3-8.6,4.3s-6.5,1.5-9.8,1.5c-4.7,0-9-1-12.7-3c-3.8-2-6.7-4.8-8.9-8.4
		c-2.1-3.6-3.2-7.6-3.2-12.1c0-4.5,1.1-8.5,3.2-12.1c2.1-3.6,5.1-6.4,8.9-8.4c3.8-2,8.1-3,12.9-3c4,0,7.6,0.7,10.9,2
		c3.2,1.3,6,3.3,8.2,5.8l-6.8,6.2c-3.2-3.4-7.2-5.1-11.8-5.1c-2.9,0-5.5,0.6-7.7,1.8c-2.3,1.2-4,2.9-5.3,5.1
		c-1.3,2.2-1.9,4.7-1.9,7.6c0,2.8,0.6,5.3,1.9,7.5c1.3,2.2,3,3.9,5.2,5.2c2.2,1.2,4.8,1.9,7.6,1.9c3,0,5.8-0.6,8.2-1.9V23.5z"/>
	<path class="st0" d="M85.6,10.1H71.1V1.5h39.7v8.6H96.2V47H85.6V10.1z"/>
</g>
<g>
	<path class="st0" d="M133.7,5.3h1.3v39.3h-1.3V5.3z"/>
	<path class="st0" d="M156.7,22.8h-5.4v-3.2H166v3.2h-5.4v13.6h-3.9V22.8z"/>
	<path class="st0" d="M185.9,33.3v3.1h-13V19.6h12.7v3.1h-8.8v3.6h7.8v3h-7.8v3.9H185.9z"/>
	<path class="st0" d="M197.1,35.6c-1.4-0.7-2.5-1.8-3.3-3.1s-1.2-2.8-1.2-4.5s0.4-3.2,1.2-4.5s1.9-2.4,3.3-3.1
		c1.4-0.7,2.9-1.1,4.7-1.1c1.5,0,2.8,0.3,3.9,0.8s2.2,1.2,3,2.2l-2.5,2.3c-1.1-1.3-2.5-2-4.2-2c-1,0-2,0.2-2.8,0.7
		c-0.8,0.5-1.5,1.1-1.9,1.9c-0.5,0.8-0.7,1.7-0.7,2.8s0.2,2,0.7,2.8c0.5,0.8,1.1,1.5,1.9,1.9c0.8,0.5,1.7,0.7,2.8,0.7
		c1.7,0,3.1-0.7,4.2-2l2.5,2.3c-0.8,1-1.8,1.7-3,2.2c-1.2,0.5-2.5,0.8-4,0.8C200,36.7,198.5,36.3,197.1,35.6z"/>
	<path class="st0" d="M231.5,19.6v16.8h-3.2l-8.4-10.2v10.2h-3.8V19.6h3.2l8.4,10.2V19.6H231.5z"/>
	<path class="st0" d="M243.7,35.6c-1.4-0.8-2.5-1.8-3.3-3.1c-0.8-1.3-1.2-2.8-1.2-4.5c0-1.6,0.4-3.1,1.2-4.5s1.9-2.4,3.3-3.1
		c1.4-0.8,3-1.1,4.7-1.1s3.3,0.4,4.7,1.1c1.4,0.8,2.5,1.8,3.3,3.1c0.8,1.3,1.2,2.8,1.2,4.5c0,1.6-0.4,3.1-1.2,4.5
		c-0.8,1.3-1.9,2.4-3.3,3.1s-3,1.1-4.7,1.1S245.1,36.3,243.7,35.6z M251.1,32.7c0.8-0.5,1.4-1.1,1.9-1.9c0.5-0.8,0.7-1.7,0.7-2.8
		s-0.2-2-0.7-2.8c-0.5-0.8-1.1-1.5-1.9-1.9c-0.8-0.5-1.7-0.7-2.7-0.7s-1.9,0.2-2.7,0.7c-0.8,0.5-1.4,1.1-1.9,1.9
		c-0.5,0.8-0.7,1.7-0.7,2.8s0.2,2,0.7,2.8c0.5,0.8,1.1,1.5,1.9,1.9c0.8,0.5,1.7,0.7,2.7,0.7S250.3,33.2,251.1,32.7z"/>
	<path class="st0" d="M265.3,19.6h3.9v13.6h8.4v3.2h-12.3V19.6z"/>
	<path class="st0" d="M287.8,35.6c-1.4-0.8-2.5-1.8-3.3-3.1c-0.8-1.3-1.2-2.8-1.2-4.5c0-1.6,0.4-3.1,1.2-4.5s1.9-2.4,3.3-3.1
		c1.4-0.8,3-1.1,4.7-1.1s3.3,0.4,4.7,1.1c1.4,0.8,2.5,1.8,3.3,3.1c0.8,1.3,1.2,2.8,1.2,4.5c0,1.6-0.4,3.1-1.2,4.5
		c-0.8,1.3-1.9,2.4-3.3,3.1s-3,1.1-4.7,1.1S289.2,36.3,287.8,35.6z M295.2,32.7c0.8-0.5,1.4-1.1,1.9-1.9c0.5-0.8,0.7-1.7,0.7-2.8
		s-0.2-2-0.7-2.8c-0.5-0.8-1.1-1.5-1.9-1.9c-0.8-0.5-1.7-0.7-2.7-0.7s-1.9,0.2-2.7,0.7c-0.8,0.5-1.4,1.1-1.9,1.9
		c-0.5,0.8-0.7,1.7-0.7,2.8s0.2,2,0.7,2.8c0.5,0.8,1.1,1.5,1.9,1.9c0.8,0.5,1.7,0.7,2.7,0.7S294.4,33.2,295.2,32.7z"/>
	<path class="st0" d="M320.8,27.8h3.6v6.8c-0.9,0.7-2,1.2-3.2,1.6c-1.2,0.4-2.4,0.6-3.6,0.6c-1.7,0-3.3-0.4-4.7-1.1
		c-1.4-0.7-2.5-1.8-3.3-3.1s-1.2-2.8-1.2-4.5s0.4-3.2,1.2-4.5s1.9-2.4,3.3-3.1c1.4-0.7,3-1.1,4.8-1.1c1.5,0,2.8,0.2,4,0.7
		c1.2,0.5,2.2,1.2,3,2.2l-2.5,2.3c-1.2-1.3-2.6-1.9-4.3-1.9c-1.1,0-2,0.2-2.9,0.7c-0.8,0.4-1.5,1.1-1.9,1.9
		c-0.5,0.8-0.7,1.8-0.7,2.8c0,1,0.2,2,0.7,2.8c0.5,0.8,1.1,1.5,1.9,1.9s1.8,0.7,2.8,0.7c1.1,0,2.1-0.2,3-0.7V27.8z"/>
	<path class="st0" d="M332.7,19.6h3.9v16.8h-3.9V19.6z"/>
	<path class="st0" d="M356.4,32.8h-7.8l-1.5,3.6h-4l7.5-16.8h3.8l7.5,16.8h-4.1L356.4,32.8z M355.2,29.9l-2.7-6.4l-2.7,6.4H355.2z"
		/>
</g>
</svg>
