<svg id="Layer_1" data-name="Layer 1" xmlns="http://www.w3.org/2000/svg" viewBox="0 0 357.25 47.06"><defs><style>.cls-1{fill:#fff;}</style></defs><path class="cls-1" d="M4.76,1.49H15.29V47H4.76Z" transform="translate(-4.76 -0.71)"/><path class="cls-1" d="M56.83,23.52h9.62V42a27.63,27.63,0,0,1-8.58,4.29,33.57,33.57,0,0,1-9.82,1.49,26.66,26.66,0,0,1-12.74-3,22.47,22.47,0,0,1-8.87-8.39,23,23,0,0,1-3.22-12.12,23,23,0,0,1,3.22-12.12,22.33,22.33,0,0,1,8.94-8.39,27.16,27.16,0,0,1,12.87-3,28,28,0,0,1,10.85,2,21.52,21.52,0,0,1,8.19,5.84l-6.76,6.24A15.64,15.64,0,0,0,48.77,9.68,16.09,16.09,0,0,0,41,11.5a13,13,0,0,0-5.26,5.13,15.13,15.13,0,0,0-1.89,7.61,14.94,14.94,0,0,0,1.89,7.54A13.33,13.33,0,0,0,41,37a15.57,15.57,0,0,0,7.64,1.85,17.09,17.09,0,0,0,8.19-1.95Z" transform="translate(-4.76 -0.71)"/><path class="cls-1" d="M85.62,10.07H71.06V1.49h39.65v8.58H96.15V47H85.62Z" transform="translate(-4.76 -0.71)"/><path class="cls-1" d="M133.68,5.25H135V44.57h-1.34Z" transform="translate(-4.76 -0.71)"/><path class="cls-1" d="M156.69,22.79h-5.37V19.62H166v3.17h-5.38V36.42h-3.89Z" transform="translate(-4.76 -0.71)"/><path class="cls-1" d="M185.85,33.3v3.12h-13V19.62h12.7v3.12h-8.83v3.64h7.8v3h-7.8V33.3Z" transform="translate(-4.76 -0.71)"/><path class="cls-1" d="M197.1,35.59a8.27,8.27,0,0,1-3.27-3.1,9,9,0,0,1,0-9,8.34,8.34,0,0,1,3.27-3.1,10.42,10.42,0,0,1,8.61-.34,7.88,7.88,0,0,1,3,2.21l-2.5,2.3a5.37,5.37,0,0,0-4.22-2,5.6,5.6,0,0,0-2.79.69,4.91,4.91,0,0,0-1.91,1.9,5.71,5.71,0,0,0-.68,2.79,5.64,5.64,0,0,0,.68,2.78,4.94,4.94,0,0,0,1.91,1.91,5.6,5.6,0,0,0,2.79.68,5.33,5.33,0,0,0,4.22-2l2.5,2.31a7.86,7.86,0,0,1-3,2.23,9.88,9.88,0,0,1-4,.77A9.68,9.68,0,0,1,197.1,35.59Z" transform="translate(-4.76 -0.71)"/><path class="cls-1" d="M231.5,19.62v16.8h-3.19l-8.38-10.2v10.2h-3.84V19.62h3.22l8.35,10.2V19.62Z" transform="translate(-4.76 -0.71)"/><path class="cls-1" d="M243.7,35.58A8.39,8.39,0,0,1,239.23,28a8.36,8.36,0,0,1,4.47-7.56,9.86,9.86,0,0,1,4.72-1.13,9.75,9.75,0,0,1,4.7,1.13,8.57,8.57,0,0,1,0,15.12,9.75,9.75,0,0,1-4.7,1.13A9.86,9.86,0,0,1,243.7,35.58Zm7.41-2.87A4.86,4.86,0,0,0,253,30.8a5.54,5.54,0,0,0,.69-2.78,5.6,5.6,0,0,0-.69-2.79,4.84,4.84,0,0,0-1.88-1.9,5.59,5.59,0,0,0-5.38,0,4.84,4.84,0,0,0-1.88,1.9,5.6,5.6,0,0,0-.69,2.79,5.54,5.54,0,0,0,.69,2.78,4.86,4.86,0,0,0,1.88,1.91,5.66,5.66,0,0,0,5.38,0Z" transform="translate(-4.76 -0.71)"/><path class="cls-1" d="M265.34,19.62h3.89V33.25h8.42v3.17H265.34Z" transform="translate(-4.76 -0.71)"/><path class="cls-1" d="M287.77,35.58a8.35,8.35,0,0,1-3.29-3.11,8.93,8.93,0,0,1,0-8.91,8.4,8.4,0,0,1,3.29-3.1,10.38,10.38,0,0,1,9.42,0,8.61,8.61,0,0,1,3.29,3.1,8.87,8.87,0,0,1,0,8.91,8.56,8.56,0,0,1-3.29,3.11,10.38,10.38,0,0,1-9.42,0Zm7.4-2.87a5,5,0,0,0,1.89-1.91,5.64,5.64,0,0,0,.68-2.78,5.71,5.71,0,0,0-.68-2.79,4.93,4.93,0,0,0-1.89-1.9,5.57,5.57,0,0,0-5.37,0,4.93,4.93,0,0,0-1.89,1.9,5.71,5.71,0,0,0-.68,2.79,5.64,5.64,0,0,0,.68,2.78,5,5,0,0,0,1.89,1.91,5.64,5.64,0,0,0,5.37,0Z" transform="translate(-4.76 -0.71)"/><path class="cls-1" d="M320.76,27.75h3.55v6.82a9.92,9.92,0,0,1-3.17,1.58,12.25,12.25,0,0,1-3.62.56,9.87,9.87,0,0,1-4.71-1.12,8.27,8.27,0,0,1-3.27-3.1A8.45,8.45,0,0,1,308.35,28a8.46,8.46,0,0,1,1.19-4.48,8.29,8.29,0,0,1,3.3-3.1,10,10,0,0,1,4.75-1.11,10.53,10.53,0,0,1,4,.74,8,8,0,0,1,3,2.16l-2.5,2.31a5.74,5.74,0,0,0-4.34-1.9,6.07,6.07,0,0,0-2.86.67,4.8,4.8,0,0,0-1.94,1.9,5.63,5.63,0,0,0-.7,2.81,5.54,5.54,0,0,0,.7,2.78,4.92,4.92,0,0,0,1.93,1.91,5.71,5.71,0,0,0,2.82.68,6.34,6.34,0,0,0,3-.72Z" transform="translate(-4.76 -0.71)"/><path class="cls-1" d="M332.71,19.62h3.89v16.8h-3.89Z" transform="translate(-4.76 -0.71)"/><path class="cls-1" d="M356.44,32.82h-7.8l-1.48,3.6h-4l7.49-16.8h3.84L362,36.42h-4.08Zm-1.22-2.95-2.66-6.44-2.67,6.44Z" transform="translate(-4.76 -0.71)"/></svg>