<svg id="Layer_1" data-name="Layer 1" xmlns="http://www.w3.org/2000/svg" viewBox="0 0 41.3 48.1"><defs><style>.cls-1{fill:none;}.cls-2{fill:#fff;}</style></defs><path class="cls-1" d="M41.3,32.6a12.76,12.76,0,0,1-1.1,4.8,18.88,18.88,0,0,1-3.4,5.1,17.07,17.07,0,0,1-6,4,22.21,22.21,0,0,1-8.5,1.6,28.13,28.13,0,0,1-6.7-.7,20.42,20.42,0,0,1-5.5-2.2,20.32,20.32,0,0,1-4.5-3.9,22.58,22.58,0,0,1-3.1-4.9A26.3,26.3,0,0,1,.6,30.6,33.4,33.4,0,0,1,0,24.1a28.36,28.36,0,0,1,1.6-10A20.35,20.35,0,0,1,6.3,6.5a20.29,20.29,0,0,1,7.1-4.8A21,21,0,0,1,22,0,21.35,21.35,0,0,1,32,2.2a17.93,17.93,0,0,1,6.7,5.6A10.65,10.65,0,0,1,41,14.1,4.56,4.56,0,0,1,39.9,17a3.78,3.78,0,0,1-2.8,1.2,3.67,3.67,0,0,1-2.7-.9,13,13,0,0,1-2-2.9,15.16,15.16,0,0,0-4.3-5.2A10.93,10.93,0,0,0,22,7.5a11.1,11.1,0,0,0-9.2,4.4C10.5,14.8,9.4,19,9.4,24.4a23.5,23.5,0,0,0,1.5,9,11.2,11.2,0,0,0,4.3,5.4,11.75,11.75,0,0,0,6.5,1.8,12,12,0,0,0,6.9-2,11.41,11.41,0,0,0,4.2-5.9,10.51,10.51,0,0,1,1.5-3,3.31,3.31,0,0,1,2.9-1.2,4,4,0,0,1,2.9,1.2A3.7,3.7,0,0,1,41.3,32.6Z"/><path class="cls-2" d="M15.76,4.13h9.07v39.2H15.76Z"/></svg>